<svg width="24" height="24" viewBox="0 0 24 24" fill="none" xmlns="http://www.w3.org/2000/svg">
<path fill-rule="evenodd" clip-rule="evenodd" d="M15.8817 1.61037C15.6583 1.54575 15.4197 1.64379 15.3063 1.8469L13.9399 4.29371L12.1655 2.39721C11.9849 2.20419 11.6674 2.2494 11.5479 2.48516C11.4816 2.61595 11.4962 2.77321 11.5856 2.88946L13.3189 5.14337C13.3467 5.17959 13.3785 5.21087 13.413 5.23713L11.877 7.98752L7.32855 3.33593C7.14392 3.14711 6.84428 3.13444 6.64436 3.30699L6.53267 3.40339C6.32904 3.57915 6.30095 3.88452 6.46912 4.09447L11.3376 10.1729L9.16539 22.5041C9.11146 22.8103 9.34696 23.0909 9.6578 23.0909H11.2828C11.5333 23.0909 11.7452 22.9054 11.7784 22.6571L12.1054 20.2085L18.3514 18.1333C18.3823 18.1579 18.4166 18.1793 18.4541 18.1966L21.4205 19.5633C21.6648 19.6759 21.9454 19.5052 21.9578 19.2365C21.9643 19.0943 21.8906 18.9604 21.767 18.8898L19.6721 17.6945L21.4622 17.0998C21.7707 16.9972 21.9009 16.6321 21.7267 16.3575L21.6905 16.3003C21.5765 16.1205 21.3611 16.0326 21.1538 16.0814L19.0255 16.5817L21.2771 13.2042C21.4406 12.9589 21.2693 12.6297 20.9746 12.6229C20.8539 12.6201 20.7393 12.6758 20.6668 12.7724L17.5487 16.9288L12.3812 18.1436L13.6019 9.00481L16.2989 2.30404C16.4094 2.02935 16.2584 1.71928 15.9739 1.63703L15.8817 1.61037ZM18.1942 3.73541L17.9951 7.55567L19.2834 6.31441C19.483 6.12209 19.7825 6.07726 20.0297 6.20271L20.1083 6.2426C20.4858 6.43421 20.5828 6.9295 20.3056 7.24941L19.2976 8.41243L21.5186 8.37375C21.661 8.37127 21.7928 8.44879 21.8597 8.57444C21.9863 8.81181 21.8322 9.1018 21.5646 9.12977L18.3881 9.46185L13 15.6787L13.5743 11.815L16.9172 8.59422L17.449 3.67575C17.4619 3.55573 17.5321 3.44936 17.6372 3.39012C17.8941 3.24548 18.2095 3.44103 18.1942 3.73541ZM6.96213 13.8663L10 15.6797L9.56516 18L8.38587 17.0989C8.36125 17.104 8.33592 17.1073 8.31 17.1087L2.73612 17.4041C2.61557 17.4105 2.49935 17.3583 2.42405 17.264C2.24018 17.0336 2.38276 16.6909 2.6758 16.659L7.16911 16.1691L3.23687 13.1643C3.02358 13.0013 2.94417 12.7236 3.04059 12.478L3.07545 12.3892C3.21445 12.0351 3.65308 11.8911 3.98657 12.0902L5.81224 13.18L5.45764 11.2097C5.43242 11.0696 5.48786 10.9271 5.60118 10.8409C5.81526 10.678 6.12616 10.7837 6.19656 11.0433L6.96213 13.8663Z" fill="#1F2223"/>
</svg>
